# xmcd
#
# Track frame offsets: 
#        150
#        17380
#        33293
#        50655
#        68888
#        81897
#
# Disc length: 1365 seconds
#
# Revision: 0
# Processed by: cddbd v1.5.2PL0 Copyright (c) Steve Scherf et al.
# Submitted via: ExactAudioCopy v0.99pb5
#
DISCID=42055306
DTITLE=Kaleigh Baker - The Weight of It All
DYEAR=2011
DGENRE=Blues
TTITLE0=Train Gone By
TTITLE1=Sugardaddy
TTITLE2=Peace, Love, And All That
TTITLE3=Sheister
TTITLE4=Love Letter to a Burning Man
TTITLE5=The Weight of It All
EXTD=
EXTT0=
EXTT1=
EXTT2=
EXTT3=
EXTT4=
EXTT5=
PLAYORDER=
